<svg width="507" height="579" viewBox="0 0 507 579" fill="none" xmlns="http://www.w3.org/2000/svg">
<g clip-path="url(#clip0_3_75)">
<path d="M249 43.4641C252.713 41.3205 257.287 41.3205 261 43.4641L465.506 161.536C469.219 163.679 471.506 167.641 471.506 171.928V408.072C471.506 412.359 469.219 416.32 465.506 418.464L261 536.536C257.287 538.68 252.713 538.68 249 536.536L44.4937 418.464C40.7808 416.32 38.4937 412.359 38.4937 408.072V171.928C38.4937 167.641 40.7808 163.679 44.4937 161.536L249 43.4641Z" fill="url(#paint0_linear_3_75)"/>
<path opacity="0.1" d="M292.795 49.677C287.453 71.1057 265.748 84.1458 244.316 78.8032C222.895 73.4607 209.854 51.7557 215.198 30.3282C220.538 8.897 242.241 -4.14551 263.666 1.19699C285.096 6.53949 298.137 28.247 292.795 49.677Z" fill="#BEBEBE"/>
<path fill-rule="evenodd" clip-rule="evenodd" d="M266.047 35.3529C266.586 31.7422 263.837 29.8012 260.078 28.5063L261.297 23.6152L258.319 22.8732L257.132 27.6354C256.35 27.4404 255.546 27.2564 254.748 27.0741L255.943 22.2804L252.968 21.5385L251.747 26.4279C251.1 26.2804 250.464 26.1345 249.846 25.981L249.85 25.9658L245.744 24.9406L244.952 28.1205C244.952 28.1205 247.161 28.6267 247.114 28.6581C248.32 28.9591 248.539 29.7571 248.501 30.3897L247.112 35.9618C247.195 35.983 247.303 36.0135 247.422 36.061L247.108 35.983L245.16 43.7887C245.013 44.155 244.639 44.7045 243.796 44.4959C243.826 44.5391 241.632 43.9557 241.632 43.9557L240.154 47.3646L244.029 48.3304C244.467 48.4401 244.899 48.5528 245.326 48.6643L245.327 48.6647C245.604 48.7368 245.878 48.8084 246.151 48.8782L244.919 53.8262L247.893 54.5682L249.114 49.6736C249.925 49.8941 250.714 50.0976 251.485 50.2893L250.269 55.1609L253.247 55.9029L254.479 50.9651C259.556 51.9259 263.374 51.5384 264.979 46.9474C266.274 43.2502 264.916 41.1175 262.245 39.726C264.19 39.2757 265.655 37.9961 266.046 35.3529H266.047ZM259.244 44.8919C258.398 48.2852 253.086 46.8812 250.657 46.2393C250.44 46.1818 250.245 46.1305 250.079 46.0892L251.714 39.5352C251.917 39.5858 252.165 39.6414 252.446 39.7044C254.958 40.2682 260.107 41.4236 259.244 44.8919ZM252.951 36.6631C254.977 37.2037 259.394 38.3821 260.164 35.2995C260.95 32.1459 256.655 31.1954 254.558 30.7312C254.322 30.679 254.114 30.633 253.944 30.5907L252.461 36.535C252.602 36.57 252.766 36.6139 252.951 36.6631Z" fill="#E4E4E4"/>
<path opacity="0.1" d="M506.783 168.001C506.783 189.976 488.969 207.79 466.994 207.79C445.019 207.79 427.205 189.976 427.205 168.001C427.205 146.026 445.019 128.212 466.994 128.212C488.969 128.212 506.783 146.026 506.783 168.001Z" fill="#BEBEBE"/>
<path d="M465.603 174.695L467.388 167.974L471.614 166.43L472.665 162.48L472.629 162.382L468.469 163.901L471.466 152.615H462.966L459.046 167.344L455.774 168.539L454.692 172.612L457.963 171.417L455.652 180.097H478.275L479.725 174.695H465.603Z" fill="#E4E4E4"/>
<path opacity="0.1" d="M40 208C62.0914 208 80 190.091 80 168C80 145.909 62.0914 128 40 128C17.9086 128 0 145.909 0 168C0 190.091 17.9086 208 40 208Z" fill="#BEBEBE" fill-opacity="0.933333"/>
<path fill-rule="evenodd" clip-rule="evenodd" d="M57.4907 159.479L56.6285 158.928C55.2855 158.071 53.8849 157.178 52.5096 156.289C52.4727 156.264 52.4357 156.239 52.3895 156.214C52.2047 156.088 51.9921 155.952 51.7333 155.876L51.7149 155.868C47.6326 154.967 43.4887 154.045 39.4519 153.147L38.2964 152.891C36.3006 152.448 34.3072 152.004 32.3137 151.562H32.3124H32.311C30.3177 151.118 28.3244 150.676 26.3288 150.233C26.2271 150.208 26.1255 150.182 26.0146 150.157C25.6541 150.064 25.2384 149.963 24.7947 150.014C24.6654 150.031 24.5544 150.073 24.4528 150.132L24.3419 150.216C24.1663 150.368 24.0739 150.562 24.0277 150.672L24 150.739V151.127L24.0184 151.186C25.9152 156.038 27.8486 160.942 29.7517 165.769L29.7522 165.771L29.7539 165.775L29.7547 165.777L29.7567 165.782C30.3832 167.371 31.0066 168.953 31.6242 170.52C32.1943 171.967 32.771 173.429 33.351 174.899L33.3522 174.902C34.7273 178.387 36.1213 181.922 37.4924 185.409C37.6125 185.747 37.9544 185.966 38.3796 186H38.472C38.8694 186 39.2205 185.823 39.3961 185.536L46.7153 175.793C47.6071 174.607 48.4989 173.42 49.3906 172.233C50.2824 171.046 51.1742 169.858 52.066 168.673C52.4308 168.188 52.7955 167.702 53.1603 167.215L53.1613 167.213C53.5262 166.727 53.8912 166.239 54.2563 165.755L54.4068 165.554C55.5609 164.013 56.7473 162.431 57.9251 160.887L57.9898 160.803V160.701C58.0175 160.407 58.0267 159.799 57.4907 159.479ZM48.9147 163.029C48.2734 163.335 47.6268 163.644 46.9766 163.955L46.974 163.956C45.8825 164.477 44.7805 165.004 43.6748 165.526L45.2182 164.017L46.7615 162.507C47.8795 161.405 49.0395 160.272 50.1868 159.152L50.1891 159.149L50.6983 158.652L50.726 158.627C50.837 158.492 50.9755 158.365 51.1234 158.23C51.1485 158.207 51.1741 158.184 51.2001 158.161C51.2792 158.091 51.3611 158.017 51.4377 157.935C52.1215 158.365 52.8146 158.804 53.48 159.234C53.9606 159.546 54.4503 159.858 54.9493 160.17C52.9162 161.115 50.8831 162.085 48.9147 163.029ZM40.4497 166.598C41.8082 165.274 43.1759 163.932 44.4973 162.625C44.8782 162.251 45.2618 161.875 45.6474 161.497L45.6557 161.488L45.6616 161.482L45.6632 161.481C47.0311 160.139 48.424 158.772 49.8112 157.42C47.1311 156.826 44.4489 156.231 41.7666 155.636L41.763 155.635C39.0818 155.041 36.4007 154.447 33.7219 153.852C32.77 153.633 31.7997 153.422 30.8664 153.219C29.8035 152.991 28.7224 152.755 27.6503 152.503C27.7053 152.563 27.7602 152.623 27.815 152.683C27.935 152.814 28.0536 152.942 28.1678 153.076C28.2508 153.168 28.3338 153.261 28.4171 153.356C28.5935 153.555 28.7713 153.756 28.9533 153.945L28.9626 153.953C29.554 154.603 30.1477 155.254 30.7414 155.906C31.335 156.558 31.9291 157.21 32.5205 157.859C35.1266 160.719 37.8159 163.679 40.4497 166.598ZM39.9345 178.329C40.0104 177.68 40.087 177.022 40.1539 176.375C40.1816 176.136 40.2094 175.894 40.2371 175.654C40.2926 175.172 40.3479 174.69 40.4034 174.223L40.4619 173.718C40.5736 172.754 40.688 171.767 40.7823 170.799L40.8101 170.596C40.9025 169.871 40.9949 169.12 41.0504 168.369C41.152 168.319 41.2629 168.268 41.3831 168.226C41.4177 168.212 41.4523 168.197 41.4869 168.183C41.5909 168.14 41.6949 168.097 41.7988 168.041L41.7998 168.04C43.9341 167.019 46.0689 165.999 48.2124 164.987C50.3472 163.974 52.5374 162.928 54.7091 161.891C52.7314 164.506 50.7446 167.146 48.8223 169.719C48.4644 170.196 48.1044 170.675 47.7427 171.157L47.7379 171.163L47.7375 171.164C46.4292 172.906 45.1001 174.676 43.7766 176.426C43.4003 176.931 43.0152 177.442 42.633 177.949L42.6329 177.95C42.3391 178.339 42.047 178.727 41.7619 179.108C41.0226 180.087 40.2648 181.09 39.5255 182.094C39.6179 181.081 39.7288 180.061 39.8489 179.066C39.877 178.821 39.9056 178.576 39.9345 178.329ZM26.8443 154.187C26.8853 154.29 26.9264 154.392 26.9665 154.494C29.0549 159.801 31.1434 165.102 33.2319 170.403C34.2763 173.054 35.3206 175.705 36.3649 178.357L37.3538 180.863C37.4832 181.208 37.6218 181.563 37.7604 181.9C37.7782 181.945 37.7973 181.992 37.8168 182.04C37.8479 182.116 37.8799 182.194 37.9083 182.271C37.946 181.95 37.9818 181.628 38.0175 181.308C38.0605 180.923 38.1032 180.54 38.1485 180.162C38.1654 180.017 38.1826 179.869 38.1996 179.723C38.3779 178.191 38.5604 176.623 38.7123 175.068L38.7215 175.008C38.7215 175.008 38.8694 173.844 38.9341 173.329C38.9446 173.245 38.9555 173.16 38.9666 173.076C39.0041 172.786 39.042 172.493 39.0634 172.199V172.19C39.1373 171.592 39.202 171.002 39.2667 170.411C39.3075 170.072 39.347 169.727 39.3868 169.379C39.4457 168.863 39.5054 168.34 39.5717 167.822C39.319 167.565 39.0815 167.301 38.8478 167.041C38.7654 166.948 38.6834 166.857 38.6014 166.767C38.3611 166.497 38.1116 166.219 37.862 165.957C37.018 165.023 36.1738 164.097 35.3298 163.171C34.9079 162.708 34.4858 162.246 34.0638 161.782C31.6149 159.098 29.1012 156.332 26.6061 153.582C26.6799 153.779 26.7622 153.984 26.8443 154.187Z" fill="#E4E4E4"/>
<path opacity="0.1" d="M293.783 539.001C293.783 560.976 275.969 578.79 253.994 578.79C232.019 578.79 214.205 560.976 214.205 539.001C214.205 517.026 232.019 499.212 253.994 499.212C275.969 499.212 293.783 517.026 293.783 539.001Z" fill="#BEBEBE"/>
<path d="M249.914 538.062V531.101H240.473V525H266.855V531.187H257.414V538.062H249.914Z" fill="#E4E4E4"/>
<path fill-rule="evenodd" clip-rule="evenodd" d="M236.414 539.078C236.414 536.757 244.002 534.867 253.443 534.867C262.885 534.867 270.473 536.757 270.473 539.078C270.473 541.398 262.885 543.288 253.443 543.288C244.002 543.288 236.414 541.398 236.414 539.078ZM269.061 539.078C268.443 538.218 263.326 535.554 253.443 535.554C243.561 535.554 238.443 538.132 237.826 539.078C238.443 539.937 243.561 541.226 253.443 541.226C263.414 541.226 268.443 539.937 269.061 539.078Z" fill="#E4E4E4"/>
<path d="M257.414 540.211V535.398C256.179 535.312 254.855 535.226 253.532 535.226C252.296 535.226 251.149 535.226 250.002 535.312V540.125C251.061 540.125 252.296 540.211 253.532 540.211C254.855 540.296 256.179 540.296 257.414 540.211Z" fill="#E4E4E4"/>
<path d="M253.443 543.288C252.208 543.288 251.061 543.288 249.914 543.203V556.007H257.326V543.117C256.091 543.203 254.767 543.288 253.443 543.288Z" fill="#E4E4E4"/>
<path opacity="0.1" d="M40 453C62.0914 453 80 435.091 80 413C80 390.909 62.0914 373 40 373C17.9086 373 0 390.909 0 413C0 435.091 17.9086 453 40 453Z" fill="#BEBEBE"/>
<path fill-rule="evenodd" clip-rule="evenodd" d="M38.6617 395.956H27.7401V410.462H21.0769V415.297H27.7401V429.802H38.6617C44.4265 429.802 45.6686 429.198 48.153 427.991C48.3458 427.897 48.5462 427.8 48.7567 427.699C51.6792 426.297 53.9503 424.322 55.5702 421.776C57.1901 419.229 58 416.264 58 412.879C58 409.494 57.1901 406.529 55.5702 403.982C53.9503 401.436 51.6792 399.462 48.7567 398.059C45.8342 396.657 42.4693 395.956 38.6617 395.956ZM35.8562 415.297V423.371H38.2609C41.7679 423.371 44.5651 422.429 46.6525 420.543C48.74 418.657 49.7837 416.103 49.7837 412.879C49.7837 409.656 48.74 407.101 46.6525 405.215C44.5651 403.33 41.7679 402.387 38.2609 402.387H35.8562V410.462H43.6215V415.297H35.8562Z" fill="#E4E4E4"/>
<path opacity="0.1" d="M467 453C489.091 453 507 435.091 507 413C507 390.909 489.091 373 467 373C444.909 373 427 390.909 427 413C427 435.091 444.909 453 467 453Z" fill="#BEBEBE"/>
<path fill-rule="evenodd" clip-rule="evenodd" d="M458.638 409.562L467.004 401.199L475.374 409.569L480.24 404.7L467.004 391.462L453.769 404.697L458.638 409.562ZM445.462 413.001L450.329 408.134L455.196 413.001L450.329 417.868L445.462 413.001ZM467.004 424.804L458.638 416.438L453.762 421.3L453.769 421.307L467.004 434.538L480.24 421.3L480.243 421.297L475.374 416.435L467.004 424.804ZM478.804 413.002L483.671 408.135L488.538 413.002L483.671 417.869L478.804 413.002ZM467.004 408.058L471.941 412.998H471.944L471.941 413.002L467.004 417.942L462.067 413.009L462.06 412.998L462.067 412.991L462.931 412.127L463.353 411.709L467.004 408.058Z" fill="#E4E4E4"/>
<path fill-rule="evenodd" clip-rule="evenodd" d="M246.031 134.5C164.51 138.053 99.5 205.853 99.5 288.971C99.5 372.597 165.306 440.717 247.526 443.5V411.007V391.168V389.808C247.526 389.808 251.264 390.555 254.628 390.555C257.992 390.555 262.478 389.808 262.478 389.808V443.283C310.438 440.255 352.417 414.973 378.389 377.554L355.746 353.229C339.07 380.374 312.144 400.437 280.421 407.916V387.44C306.799 379.89 328.774 361.812 341.576 338.006L316.859 311.452C307.849 338.384 282.555 357.78 252.759 357.78C218.946 357.78 190.93 332.8 185.931 300.175H152.361C156.767 343.55 188.287 378.845 229.583 388.611V408.883C173.802 397.974 131.684 348.435 131.684 288.971C131.684 230.04 173.051 180.856 228.088 169.361V191.19C188.475 201.208 158.158 234.792 152.709 276.273H186.457C192.658 245.123 219.986 221.656 252.759 221.656C280.404 221.656 304.175 238.354 314.659 262.276L339.689 238.075C326.417 215.491 304.706 198.527 278.925 191.581V169.683C310.766 176.76 337.905 196.482 354.904 223.363L378.5 200.549C352.268 162.652 309.634 137.168 260.983 134.572V167.101V188.466V191.121C260.983 191.121 257.245 190.374 253.881 190.374C250.516 190.374 246.031 191.121 246.031 191.121L246.031 188.356V167.009L246.031 161.991V134.5Z" fill="url(#paint1_linear_3_75)" fill-opacity="0.92"/>
</g>
<defs>
<linearGradient id="paint0_linear_3_75" x1="255" y1="40" x2="255" y2="540" gradientUnits="userSpaceOnUse">
<stop stop-color="#49C8FF" stop-opacity="0.2"/>
<stop offset="1" stop-color="#1F1F1F" stop-opacity="0"/>
</linearGradient>
<linearGradient id="paint1_linear_3_75" x1="239" y1="134.5" x2="239" y2="443.5" gradientUnits="userSpaceOnUse">
<stop stop-color="#5D9BE2"/>
<stop offset="1" stop-color="#3B7AC5"/>
</linearGradient>
<clipPath id="clip0_3_75">
<rect width="507" height="579" fill="white"/>
</clipPath>
</defs>
</svg>
